<svg width="103" height="32" viewBox="0 0 103 32" fill="none" xmlns="http://www.w3.org/2000/svg">
<g clip-path="url(#clip0_309_7001)">
<path d="M17.4356 3.25441V10.1431C17.4356 12.6913 17.1659 15.977 15.0589 18.8612C14.6195 19.4492 14.1302 19.9999 13.541 20.532L13.531 20.5413C12.3826 21.568 10.8747 22.5388 8.71778 23.6588C6.56079 22.5387 5.04281 21.568 3.90456 20.5413L3.89458 20.532C3.3055 19.9997 2.8062 19.4584 2.37668 18.861C0.26963 15.9862 0 12.6913 0 10.143V3.25448L0.349513 3.21715C0.399444 3.20775 5.07296 2.66638 8.7177 2.66638C12.3627 2.66638 17.036 3.20775 17.0859 3.21709L17.4356 3.25441Z" fill="#BF5700"/>
<path d="M8.7179 3.42271C6.00165 3.42271 2.69661 3.73075 1.22862 3.88008L0.809171 9.30302H16.6267L16.2178 3.88008C14.7398 3.73078 11.4342 3.42271 8.7179 3.42271ZM8.7179 9.7605L0.798845 10.1715C0.798874 12.6075 1.05853 15.7439 3.03574 18.4414C3.44528 18.9923 3.91466 19.5145 4.47381 20.0186C6.2114 21.5119 8.16872 22.3336 8.7179 22.5484C9.26707 22.3336 11.2244 21.5119 12.962 20.0186C13.5211 19.5145 13.9908 19.0016 14.4001 18.4414C16.3673 15.7439 16.6267 12.6075 16.6267 10.1715L8.7179 9.7605Z" fill="white"/>
<path d="M7.76911 4.384C7.35969 4.384 6.92003 4.44978 6.46068 4.50579C5.9514 4.58046 5.42273 4.64533 4.89347 4.64533H4.64377V5.60696H4.27422V6.16685H4.64377V6.93225H4.27422V7.49215H4.64377V8.5375H4.89347C5.46269 8.5375 6.02131 8.45401 6.55057 8.37934C7.00991 8.314 7.43957 8.24825 7.79906 8.24825C8.09865 8.24825 8.31846 8.28603 8.48823 8.37004H8.96765C9.13741 8.28603 9.35723 8.24825 9.65682 8.24825C10.0263 8.24825 10.455 8.314 10.9044 8.37934C11.4437 8.45401 12.0032 8.5375 12.5624 8.5375H12.8121V7.49215H13.1817V6.93225H12.8121V6.16685H13.1817V5.61628H12.8121V4.64536H12.5624C12.0331 4.64536 11.5036 4.57115 10.9943 4.50581C10.5249 4.44034 10.086 4.38389 9.68647 4.38389C9.30701 4.38389 8.98727 4.44018 8.72762 4.55219C8.46799 4.44019 8.14872 4.384 7.76911 4.384ZM8.71797 10.1436C8.70798 10.1436 8.69799 10.1529 8.69799 10.1622L7.82905 12.6538H5.03332C5.02334 12.6538 5.01335 12.6546 5.00336 12.6639C5.00336 12.6826 5.00336 12.6918 5.02333 12.6918L7.28971 14.2319L6.42077 16.7421C6.42077 16.7421 6.42077 16.7514 6.43076 16.7514H6.44075L8.72801 15.202L11.0144 16.7514H11.0244C11.0343 16.7421 11.0343 16.7328 11.0244 16.7328L10.1554 14.232L12.4227 12.6919C12.4327 12.6919 12.4427 12.6826 12.4327 12.6639C12.4327 12.6546 12.4227 12.6538 12.4127 12.6538H9.60699L8.73804 10.1622C8.73804 10.1529 8.72795 10.1436 8.71797 10.1436ZM3.55506 10.6476L3.39525 10.7779C3.00579 11.0486 2.73604 11.4412 2.64615 11.8892C2.59622 12.1132 2.59622 12.3367 2.64615 12.5514C2.45661 12.411 2.23679 12.3085 2.00712 12.2339L1.79736 12.1782L1.74743 12.3735C1.63759 12.8216 1.71752 13.2789 1.95718 13.6709C2.19685 14.0629 2.59651 14.353 3.05586 14.4837L3.23564 14.5302C3.25561 14.6702 3.29558 14.8097 3.34551 14.9497C3.08587 14.791 2.78612 14.6977 2.47657 14.679L2.26682 14.6604V14.866C2.25683 15.3233 2.43667 15.7529 2.75624 16.0889C3.08577 16.4249 3.52541 16.6301 4.01474 16.6674L4.20451 16.686C4.25444 16.826 4.32438 16.9571 4.40427 17.0691C4.19456 16.9945 3.96475 16.9567 3.73507 16.9567C3.65519 16.9567 3.57525 16.9566 3.49536 16.966L3.28561 16.9939L3.32556 17.1901C3.41544 17.6381 3.6852 18.0307 4.08464 18.3014C4.41418 18.5254 4.79388 18.6372 5.20329 18.6372C5.28318 18.6372 5.36312 18.6372 5.44301 18.6279L5.63187 18.6093C5.71176 18.7306 5.80169 18.8423 5.91154 18.945C5.61195 18.8984 5.29313 18.9261 5.00355 19.0195L4.80379 19.0854L4.88369 19.2715C5.07343 19.6915 5.42222 20.0278 5.86162 20.2052C6.11127 20.3079 6.37104 20.3642 6.6307 20.3642C6.84041 20.3642 7.06021 20.3263 7.25993 20.261L7.40975 20.2145C7.65941 20.4105 7.93919 20.6069 8.32866 20.859C8.14891 20.971 7.95905 21.0826 7.73938 21.2226L8.11893 21.4374C8.32864 21.3068 8.51849 21.1942 8.68826 21.0822C8.85803 21.1849 9.04787 21.3068 9.25759 21.4374L9.63715 21.2226C9.41745 21.0919 9.22761 20.971 9.04787 20.859C9.43734 20.6069 9.71712 20.4105 9.96677 20.2145L10.1157 20.261C10.3154 20.3263 10.5352 20.3642 10.7449 20.3642C11.0145 20.3642 11.2743 20.3079 11.514 20.2052C11.9534 20.0185 12.3031 19.6915 12.4928 19.2715L12.5727 19.0854L12.373 19.0195C12.0834 18.9261 11.7637 18.8984 11.4641 18.945C11.5739 18.8424 11.6639 18.7306 11.7437 18.6093L11.9335 18.6279C12.0134 18.6372 12.0933 18.6372 12.1732 18.6372C12.5826 18.6372 12.9623 18.5254 13.2919 18.3014C13.6813 18.0307 13.9511 17.6381 14.051 17.1901L14.0909 16.9939L13.8812 16.966C13.8013 16.9566 13.7213 16.9567 13.6414 16.9567C13.4118 16.9567 13.192 16.9945 12.9723 17.0691C13.0521 16.9478 13.1221 16.8167 13.172 16.686L13.3618 16.6674C13.8511 16.6301 14.2907 16.425 14.6203 16.0889C14.9498 15.7529 15.1188 15.314 15.1088 14.866V14.6604L14.8891 14.679C14.5795 14.6977 14.2807 14.8003 14.021 14.9497C14.0809 14.819 14.1109 14.6702 14.1309 14.5302L14.3506 14.4837C14.82 14.353 15.2087 14.0629 15.4484 13.6709C15.688 13.2789 15.768 12.8216 15.6581 12.3735L15.6082 12.1782L15.3984 12.234C15.1588 12.2993 14.9498 12.4111 14.7601 12.5512C14.8 12.3365 14.8 12.1129 14.7601 11.8889C14.6702 11.4409 14.4005 11.0483 14.011 10.7776L13.8412 10.6567L13.7313 10.8241C13.4717 11.2068 13.3818 11.6642 13.4716 12.1122C13.5615 12.5602 13.8313 12.9435 14.2207 13.2142C14.1508 13.3636 14.1009 13.5317 14.0709 13.6904C13.9511 13.3917 13.7613 13.1304 13.4916 12.925L13.3209 12.7936L13.1912 12.9619C12.9116 13.3353 12.7817 13.7833 12.8516 14.2314C12.9115 14.6794 13.1613 15.0897 13.5308 15.379L13.5408 15.3883C13.431 15.5284 13.341 15.6779 13.2811 15.8459C13.2312 15.5379 13.1013 15.2395 12.8816 14.9782L12.7517 14.8192L12.5919 14.9587C12.2324 15.2668 12.0126 15.6871 11.9727 16.1351C11.9327 16.5832 12.0826 17.0313 12.3822 17.386L12.3922 17.3953C12.2524 17.5073 12.1325 17.6477 12.0326 17.7877C12.0526 17.4704 11.9926 17.1527 11.8328 16.8633L11.733 16.6857L11.5432 16.7889C11.1238 17.0222 10.814 17.3862 10.6742 17.8249C10.5344 18.2636 10.5844 18.7209 10.8041 19.1316V19.1409C10.6443 19.2249 10.4944 19.3367 10.3746 19.4581C10.4645 19.15 10.4745 18.8324 10.3846 18.5151L10.3346 18.3197L10.1349 18.3848C9.67554 18.5342 9.29675 18.8326 9.0571 19.2339C8.8374 19.6166 8.77745 20.0647 8.8873 20.4941C8.82738 20.5314 8.75745 20.5786 8.69753 20.6159C8.62763 20.5692 8.56767 20.5314 8.50776 20.4941C8.61761 20.0648 8.55766 19.6166 8.33796 19.2339C8.10829 18.8326 7.72862 18.5341 7.25926 18.3848L7.0595 18.3197L7.00957 18.5151C6.91969 18.8231 6.92968 19.15 7.01955 19.4581C6.88973 19.3367 6.74984 19.2249 6.58009 19.1409L6.59008 19.1316C6.80978 18.7209 6.84974 18.2636 6.71993 17.8249C6.58012 17.3862 6.27038 17.0222 5.85099 16.7889L5.66121 16.6857L5.56133 16.8633C5.40156 17.1527 5.34251 17.4704 5.36248 17.7877C5.26262 17.6384 5.14272 17.5073 5.0029 17.3953L5.01289 17.386C5.31248 17.0313 5.46236 16.5832 5.4224 16.1258C5.38245 15.6685 5.16264 15.2574 4.80314 14.9494L4.64333 14.8098L4.51348 14.9688C4.29379 15.2209 4.16388 15.5192 4.11395 15.8366C4.05323 15.6781 3.96346 15.5191 3.85344 15.3792L3.86343 15.3699C4.2429 15.0805 4.48269 14.6702 4.54263 14.2222C4.60255 13.7742 4.48265 13.3167 4.20303 12.9527L4.07319 12.7844L3.90339 12.9155C3.63377 13.1208 3.43392 13.3822 3.32409 13.6809C3.30412 13.5129 3.25416 13.3541 3.17427 13.2047C3.56374 12.934 3.83348 12.5414 3.92337 12.1027C4.01325 11.6547 3.92332 11.1973 3.66368 10.8146L3.55381 10.6472L3.55506 10.6476Z" fill="#BF5700"/>
<path d="M7.75879 4.84152C7.3893 4.84152 6.96965 4.89713 6.52027 4.96246C6.12083 5.01847 5.72206 5.06555 5.30264 5.09356L5.19277 8.05287C5.61219 8.0342 6.04091 7.97781 6.46034 7.91247C6.92969 7.84713 7.37933 7.78138 7.78874 7.78138C8.00844 7.78138 8.19828 7.80071 8.36805 7.83804L8.45794 5.36422V4.9532C8.2784 4.87854 8.04864 4.84152 7.75879 4.84152ZM9.67648 4.84152C9.38688 4.84152 9.16706 4.87849 8.97731 4.95316V5.36418L9.0672 7.83801C9.23696 7.80067 9.4268 7.78134 9.6465 7.78134C10.0559 7.78134 10.5047 7.8471 10.974 7.91244C11.3934 7.97778 11.8231 8.03416 12.2425 8.05283L12.1328 5.09352C11.7133 5.06549 11.3037 5.0184 10.9141 4.96242C10.4647 4.89708 10.0461 4.84152 9.67648 4.84152ZM3.45483 11.2167C3.23514 11.4221 3.09525 11.6742 3.03532 11.9542C2.98539 12.2343 3.01537 12.5235 3.1352 12.7755C3.3549 12.5701 3.49478 12.318 3.55471 12.038C3.60464 11.7579 3.57466 11.4781 3.45483 11.2167ZM13.9505 11.2167C13.8307 11.4781 13.7907 11.7672 13.8506 12.0473C13.9105 12.3273 14.0604 12.5794 14.2701 12.7848C14.39 12.5234 14.4299 12.2343 14.37 11.9542C14.3101 11.6742 14.1602 11.4128 13.9505 11.2167ZM8.71777 11.9077L8.1984 13.1205L6.79008 13.2144L7.87878 14.0542L7.52921 15.3237L8.71777 14.6234L9.90633 15.3237L9.55676 14.0542L10.6345 13.2144L9.23714 13.1298L8.71777 11.9077ZM2.10653 12.6731C2.08656 12.9531 2.1565 13.2423 2.30629 13.485C2.45608 13.7277 2.68587 13.9235 2.9555 14.0449C2.98546 13.7649 2.91552 13.485 2.75574 13.233C2.60595 12.9903 2.37616 12.7944 2.10653 12.6731ZM15.3079 12.6731C15.0283 12.7944 14.8094 12.9903 14.6596 13.233C14.5098 13.485 14.4398 13.7649 14.4598 14.0449C14.7294 13.9235 14.9583 13.7277 15.1081 13.485C15.2579 13.233 15.3279 12.9531 15.3079 12.6731ZM4.01427 13.3725C3.81455 13.5872 3.68465 13.8486 3.64472 14.1286C3.60478 14.4087 3.65474 14.6979 3.79454 14.9499C3.99427 14.7352 4.12417 14.4746 4.16409 14.1946C4.20404 13.9053 4.15408 13.6245 4.01427 13.3725ZM13.4013 13.3725C13.2615 13.6245 13.2116 13.9146 13.2515 14.1946C13.2914 14.4746 13.4213 14.7352 13.621 14.9499C13.7609 14.6979 13.8108 14.4087 13.7709 14.1286C13.7309 13.8486 13.601 13.5872 13.4013 13.3725ZM2.68592 15.0809C2.73585 15.361 2.86575 15.6224 3.06548 15.8371C3.2652 16.0517 3.53498 16.2014 3.82456 16.2574C3.77462 15.9774 3.64473 15.7066 3.445 15.5013C3.24528 15.2959 2.9755 15.1463 2.68592 15.0809ZM14.7197 15.0809C14.4301 15.1463 14.1703 15.2866 13.9606 15.5013C13.7509 15.716 13.621 15.9774 13.5811 16.2574C13.8707 16.1921 14.1404 16.0517 14.3401 15.8371C14.5498 15.6317 14.6797 15.3703 14.7197 15.0809ZM12.7021 15.3981C12.5124 15.6221 12.3925 15.8835 12.3725 16.1728C12.3525 16.4621 12.4225 16.742 12.5623 16.9847C12.752 16.7607 12.8719 16.49 12.8919 16.21C12.9218 15.9207 12.8519 15.6408 12.7021 15.3981ZM4.70356 15.4074C4.55377 15.6501 4.49381 15.93 4.5038 16.2193C4.53376 16.5087 4.64367 16.77 4.83339 16.994C4.98319 16.7513 5.05313 16.4715 5.03315 16.1821C5.0032 15.8928 4.89328 15.6314 4.70356 15.4074ZM5.83131 17.2554C5.74143 17.5261 5.73144 17.8161 5.82132 18.0867C5.9112 18.3574 6.08105 18.5995 6.31074 18.7769C6.40062 18.5062 6.4106 18.217 6.32073 17.9464C6.23086 17.6757 6.06099 17.4327 5.83131 17.2554ZM11.5736 17.2554C11.3439 17.4327 11.1741 17.6757 11.0842 17.9464C10.9943 18.217 11.0043 18.5062 11.0942 18.7769C11.3239 18.5995 11.4937 18.3574 11.5836 18.0867C11.6735 17.8161 11.6635 17.5261 11.5736 17.2554ZM3.7848 17.34C3.89465 17.6013 4.0745 17.8342 4.32415 18.0022C4.57381 18.1702 4.86356 18.2542 5.15317 18.2728C5.05331 18.0021 4.87346 17.7786 4.6238 17.6106C4.37414 17.4426 4.08439 17.3493 3.7848 17.34ZM13.6113 17.34C13.3117 17.3493 13.022 17.4426 12.7723 17.6106C12.5326 17.7786 12.3428 18.0021 12.2429 18.2728C12.5425 18.2635 12.8323 18.1702 13.0819 18.0022C13.3316 17.8342 13.5114 17.6013 13.6113 17.34ZM10.0566 18.8429C9.79698 18.9735 9.57718 19.1786 9.42739 19.4307C9.27759 19.6827 9.21765 19.9626 9.25759 20.2426C9.52721 20.1119 9.74704 19.9068 9.88683 19.6548C10.0266 19.4028 10.0866 19.1229 10.0566 18.8429ZM7.34987 18.8522C7.31992 19.1322 7.37987 19.4121 7.51967 19.6548C7.65948 19.9068 7.8793 20.1119 8.1489 20.2426C8.17886 19.9626 8.11891 19.6827 7.97911 19.4307C7.8393 19.188 7.61948 18.9829 7.34987 18.8522ZM5.59744 19.2979C5.52285 19.2999 5.44806 19.3073 5.37316 19.319C5.53294 19.5617 5.76184 19.7576 6.04144 19.8696C6.31107 19.9816 6.62081 20.0186 6.92039 19.9719C6.76061 19.7292 6.5308 19.5334 6.2512 19.4213C6.04149 19.3303 5.82119 19.2917 5.59744 19.2979ZM11.8173 19.2996C11.5912 19.2956 11.3667 19.3373 11.1645 19.4214C10.8849 19.5427 10.6551 19.7292 10.4953 19.9719C10.5852 19.9813 10.6751 19.9905 10.765 19.9905C10.9747 19.9905 11.1845 19.9536 11.3742 19.8696C11.6538 19.7482 11.8836 19.5617 12.0434 19.319C11.9685 19.3074 11.8927 19.3009 11.8173 19.2996Z" fill="white"/>
<path d="M6.82838 5.35468C7.13544 5.31268 7.43682 5.28102 7.72002 5.28364C7.81442 5.28451 7.90709 5.28951 7.99697 5.29885L7.98698 5.67184C7.64744 5.64384 7.25777 5.68095 6.82838 5.73696V5.35468Z" fill="#BF5700"/>
<path d="M9.43525 5.29887C9.59003 5.28486 9.7499 5.28478 9.91467 5.29294C10.0794 5.30111 10.2484 5.31742 10.4232 5.33609V5.71837C10.0636 5.6717 9.73484 5.65318 9.44524 5.67185L9.43525 5.29887Z" fill="#BF5700"/>
<path d="M10.7228 5.74711V5.36399C10.8127 5.38265 10.8926 5.39187 10.9825 5.4012C11.2221 5.43854 11.462 5.46708 11.7016 5.49508L11.7116 5.87736C11.442 5.84935 11.1822 5.81236 10.9226 5.77502C10.8526 5.76569 10.7927 5.75644 10.7228 5.74711Z" fill="#BF5700"/>
<path d="M6.44927 5.4012C6.47907 5.4012 6.49902 5.4012 6.52888 5.3919L6.52887 5.77502H6.5089C6.24924 5.81235 5.98946 5.84935 5.71984 5.87736L5.72983 5.49508C5.96951 5.46708 6.2096 5.43854 6.44927 5.4012Z" fill="#BF5700"/>
<path d="M6.46895 6.26048C6.8659 6.20448 7.25211 6.15299 7.61394 6.14292C7.73455 6.13957 7.8523 6.14098 7.96714 6.14798L7.95716 6.52181C7.54774 6.49381 7.05815 6.55878 6.51889 6.63345C6.49898 6.64276 6.48878 6.64276 6.46895 6.64276V6.26048Z" fill="#BF5700"/>
<path d="M9.48531 6.52183L9.47533 6.148C9.74493 6.13866 10.0338 6.15721 10.3434 6.18521V6.55905C10.0338 6.52171 9.74495 6.50316 9.48531 6.52183Z" fill="#BF5700"/>
<path d="M10.643 6.59625V6.21312C10.7529 6.23179 10.8728 6.24182 10.9826 6.26048C11.2323 6.28849 11.4821 6.32552 11.7317 6.35352L11.7417 6.7358C11.4621 6.70779 11.1923 6.67079 10.9227 6.63346C10.8328 6.62413 10.7329 6.60558 10.643 6.59625Z" fill="#BF5700"/>
<path d="M5.69984 6.35352C5.84963 6.33485 6.00948 6.31636 6.15927 6.2977H6.16926V6.67997L5.68985 6.73579L5.69984 6.35352Z" fill="#BF5700"/>
<path d="M9.51653 7.37098L9.50654 6.99714C9.85593 6.97856 10.2447 7.01667 10.6443 7.07242V7.4454C10.2348 7.3894 9.84606 7.35231 9.51653 7.37098Z" fill="#BF5700"/>
<path d="M6.82975 7.07242C7.21919 7.02574 7.58889 6.98778 7.92843 7.00645L7.91845 7.38027C7.59889 7.3616 7.2292 7.39869 6.82975 7.45469V7.07242Z" fill="#BF5700"/>
<path d="M10.9539 7.49189V7.10033C10.9737 7.10962 10.9839 7.10962 10.9938 7.10962C11.2435 7.14695 11.5033 7.18395 11.7729 7.21195L11.7829 7.59508C11.4933 7.56707 11.2135 7.52923 10.9439 7.49189H10.9539Z" fill="#BF5700"/>
<path d="M6.46005 7.11893C6.48002 7.11893 6.50001 7.10963 6.52997 7.10963L6.54995 7.10964V7.50121H6.52997C6.25037 7.53855 5.9606 7.57639 5.671 7.60439L5.681 7.22127C5.94062 7.19326 6.20041 7.15627 6.46005 7.11893Z" fill="#BF5700"/>
<path d="M96.2342 3.50696C92.6493 4.20703 90.0624 5.74712 90.0624 8.37928C90.0624 10.5261 91.5909 11.6364 93.4484 12.3829L96.5736 13.6617C98.1214 14.2871 99.2594 15.2302 99.2594 16.873C99.2594 18.6371 97.9715 19.9345 95.7546 19.9345C94.3067 19.9345 92.8888 19.309 92.1199 18.413L91.221 16.3595H89.4141L89.9825 19.6172C91.3506 20.6252 92.9484 21.2596 95.3252 21.2596C100.178 20.3169 101.826 18.1235 101.826 15.8553C101.826 13.3911 100.049 12.1866 98.0118 11.3652L95.0453 10.1617C93.6273 9.58301 92.6192 8.76131 92.6192 7.43589C92.6192 5.82109 93.8272 4.7853 95.8743 4.7853C97.4222 4.7853 98.2507 5.3168 98.9197 5.9702L99.6688 8.16407H100.957V4.90638C99.6694 4.01061 97.8623 3.50696 96.2342 3.50696ZM80.5158 3.70317L78.9686 4.11335L72.5671 19.7479L71.3286 19.9069L70.091 19.7293L64.3587 11.8419L69.6515 5.038L71.6682 4.77666L71.5384 3.93598L68.5229 4.01126L65.5074 3.93598L65.3776 4.77666L67.624 5.09383L63.5298 10.7222L59.8851 5.07525L62.0815 4.75808L61.9517 3.9174L58.287 4.01128L54.5924 3.9174L54.4625 4.75808L56.4801 5.01942L61.8219 12.5701L56.2504 19.7386L54.2328 19.9999L54.3627 20.8685L57.2483 20.7932L60.2646 20.8685L60.3945 19.9999L58.2771 19.7107L62.6807 13.7L66.6951 19.6921L64.4986 20.0093L64.6285 20.8779L68.3231 20.8026L71.3386 20.8592L73.456 20.8026L76.5513 20.8779L76.6811 20.0372L74.4347 19.72L76.1118 15.2114H82.4833L84.2412 19.72L82.0439 20.0372L82.1737 20.8779L85.5788 20.8026L89.1446 20.8779L89.2745 20.0372L87.2569 19.7758L80.5158 3.70317ZM22.1689 3.91714V8.18313H23.1777L24.3654 5.12163L28.2307 5.07512V19.6921L25.1346 20.0093L25.2644 20.8491L29.5983 20.7747L33.7822 20.8491L33.912 20.0093L30.9464 19.6921V5.07512L34.8109 5.12163L35.9995 8.18313H37.0082V3.91714L29.578 3.99242L22.1689 3.91714ZM38.5556 3.91714L38.4257 4.75783L40.7529 5.07499V19.692L38.4257 20.0091L38.5556 20.849L42.1214 20.7745L52.3662 20.849L53.2651 16.3876H52.2863L50.5593 19.6453L43.4587 19.7197V12.4767L47.0744 12.579L48.1023 15.1087H49.0112L48.7515 11.851L49.0112 8.83674H48.1023L47.0744 11.3655L43.4587 11.4687V5.04706L50.2996 5.12148L51.7479 8.25758H52.6259L52.3662 3.91727L42.1214 3.99254L38.5556 3.91714ZM79.1892 6.81122L82.0049 14.045H76.5122L79.1892 6.81122ZM28.6835 24.5888L28.0933 24.6522L26.744 24.6615L25.1641 24.6522V25.5318H25.3738L25.6235 24.9059L26.4535 24.8882V27.9092L25.7933 27.9726L25.8233 28.1452L26.744 28.1266L27.6329 28.1452L27.6638 27.9726L27.0337 27.9092V24.8882L28.1532 24.9059L28.353 24.8789V27.9362L28.0234 27.9819L28.0534 28.1536L28.6336 28.1358L29.1529 28.1536L29.1829 27.9819L28.8833 27.9362V26.457L29.0431 26.3665C29.243 26.2486 29.4533 26.1399 29.6233 26.1399C29.8432 26.1399 29.9728 26.2489 29.9728 26.512V27.9363L29.7032 27.9819L29.7331 28.1536L30.2525 28.1359L30.8727 28.1452L30.9026 27.9726L30.4931 27.9269V26.6025C30.4931 25.9675 30.3731 25.7314 29.6732 25.7314L28.8733 26.2033V24.5888L28.6835 24.5888ZM88.4033 24.6065L88.0728 24.6886L86.7135 27.9176L86.2831 27.9725L86.313 28.1451L86.9032 28.1265L87.5634 28.1451L87.5934 27.9725L87.113 27.9091L87.4735 26.9746V26.9839H88.8228L89.1924 27.9176L88.7229 27.9818L88.7528 28.1535L89.4829 28.1358L90.2429 28.1535L90.2728 27.9818L89.8424 27.9269L88.4033 24.6065ZM64.1369 24.6251L63.6775 25.0971C63.4775 25.2966 63.3778 25.4954 63.3778 25.7948V25.8405H63.0573L62.8875 26.013V26.0942H63.3678V27.9362L62.9774 27.9819L63.0073 28.1536L63.6375 28.1358L64.4874 28.1536L64.5174 27.9633L63.8872 27.9269V26.0857H64.5773V25.8498H63.8872V25.7229C63.8872 25.3963 63.9271 25.2512 64.0071 25.1605L64.1169 25.0243H64.827V24.6251L64.1369 24.6251ZM34.7009 24.6522L34.671 24.8247L35.1713 24.8882V26.9112C35.1713 27.7095 35.5615 28.2356 36.6413 28.2356C37.7411 27.9998 38.0305 27.5737 38.0305 26.9205V24.8882L38.5009 24.8248L38.4709 24.6522L37.8308 24.67L37.1307 24.6522L37.1007 24.8248L37.5811 24.8789V26.9653C37.5811 27.6094 37.2611 27.954 36.6912 27.954C36.0614 27.954 35.7714 27.6008 35.7714 26.9839V24.8882L36.2409 24.8247L36.2109 24.6522L35.4609 24.67L34.7009 24.6522ZM66.3049 24.6615V25.5411H66.5246L66.7743 24.9059L67.6042 24.8974V27.9177L66.945 27.9819L66.975 28.1536L67.8948 28.1359L68.7846 28.1536L68.8046 27.9819L68.1745 27.9177V24.8974L69.0044 24.9059L69.2541 25.5411H69.4638V24.6615L67.8848 24.6793L66.3049 24.6615ZM42.519 24.67L42.1195 24.6979L42.0696 24.933L42.0995 25.2146L42.2493 25.2417L42.6389 25.2146L42.6988 24.9787L42.6688 24.6979L42.519 24.67ZM53.9071 24.67L53.5066 24.6979L53.4567 24.933L53.4866 25.2146L53.6374 25.2417L54.0269 25.2146L54.0868 24.9787L54.0569 24.6979L53.9071 24.67ZM98.3603 24.67L97.9599 24.6979L97.9099 24.933L97.9398 25.2146L98.0897 25.2417L98.4801 25.2146L98.54 24.9787L98.51 24.6979L98.3603 24.67ZM88.1615 25.1512L88.2015 25.4235L88.7218 26.7386H87.5523L88.1615 25.1512ZM55.4076 25.1782L55.0471 25.5047V25.8311H54.6876L54.4978 26.0037V26.0857H55.0272V27.5734C55.0272 28.027 55.1073 28.2263 55.7272 28.2263L56.4173 27.8821L56.3274 27.7096C56.1775 27.7731 56.0071 27.8457 55.8471 27.8457C55.6171 27.8457 55.5574 27.6915 55.5574 27.5463V26.0223H56.3874L57.3072 28.1265L57.5269 28.0631L56.9767 28.8158H56.5072V29.3148V29.3334H57.1673L57.7866 28.0724L58.6764 26.0307L59.0269 25.9766L58.997 25.8041L58.5366 25.8227L58.0572 25.8041L58.0272 25.9766L58.2769 26.0307L57.5968 27.8364L57.5569 27.4913L56.9467 26.0307L57.3072 25.9766L57.2773 25.8041H55.5475V25.1782L55.4076 25.1782ZM84.1821 25.1782L83.8216 25.5047V25.8311H83.462L83.2722 26.0037V26.0857H83.8016V27.5734C83.8016 28.027 83.8818 28.2263 84.5017 28.2263L85.1418 27.8998L85.052 27.7273C84.892 27.7908 84.7715 27.8457 84.6116 27.8457C84.3816 27.8457 84.3219 27.6915 84.3219 27.5463V26.0857H85.1518V25.8591H84.3219V25.1782L84.1821 25.1782ZM96.2894 25.1782L95.9299 25.5047V25.8311H95.5703L95.3796 26.0037V26.0857H95.9099V27.5734C95.9099 28.027 95.9901 28.2263 96.61 28.2263L97.2492 27.8998L97.1593 27.7273C97.0094 27.7908 96.8898 27.8457 96.7298 27.8457C96.4999 27.8457 96.4402 27.6915 96.4402 27.5463V26.0857H97.2592V25.8591H96.4302V25.1782L96.2894 25.1782ZM51.9096 25.7043C51.2697 25.8313 50.9099 26.0311 50.9099 26.3758C50.9099 26.657 51.1294 26.8471 51.3693 26.956L51.7997 27.1649C52.0896 27.301 52.1992 27.3922 52.1992 27.5827C52.1992 27.7914 52.0497 27.9633 51.7597 27.9633C51.5898 27.9633 51.4294 27.909 51.3094 27.8364L51.1196 27.4186H50.7691L50.8699 27.9819C51.0199 28.0545 51.369 28.2086 51.7089 28.2086C52.3388 28.0816 52.7395 27.9179 52.7395 27.4643C52.7395 27.1831 52.5891 26.9931 52.2192 26.8207L51.7997 26.6296C51.5597 26.5207 51.4192 26.4216 51.4192 26.2583C51.4192 26.0768 51.6297 25.9673 51.8396 25.9673C52.0396 25.9673 52.1991 26.0492 52.2591 26.0764L52.399 26.43H52.6895V25.931C52.5296 25.8221 52.2095 25.7043 51.9096 25.7043ZM78.424 25.7043C77.7841 25.8313 77.4243 26.0311 77.4243 26.3758C77.4243 26.657 77.6447 26.8471 77.8846 26.956L78.3141 27.1649C78.604 27.301 78.7145 27.3922 78.7145 27.5827C78.7145 27.7914 78.5641 27.9633 78.2742 27.9633C78.1042 27.9633 77.9447 27.909 77.8247 27.8364L77.634 27.4186H77.2845L77.3843 27.9819C77.5343 28.0545 77.8943 28.2086 78.2242 28.2086C78.8541 28.0816 79.2539 27.9179 79.2539 27.4643C79.2539 27.1831 79.1045 26.9931 78.7345 26.8207L78.3141 26.6296C78.0742 26.5207 77.9346 26.4216 77.9346 26.2583C77.9346 26.0768 78.1441 25.9673 78.3541 25.9673C78.5541 25.9673 78.7145 26.0492 78.7745 26.0764L78.9143 26.43H79.204V25.931C79.044 25.8221 78.7239 25.7043 78.424 25.7043ZM94.3612 25.7043C93.7213 25.8313 93.3615 26.0311 93.3615 26.3758C93.3615 26.657 93.5819 26.8471 93.8218 26.956L94.2513 27.1649C94.5312 27.301 94.6517 27.3922 94.6517 27.5827C94.6517 27.7914 94.5013 27.9633 94.2113 27.9633C94.0414 27.9633 93.8819 27.909 93.7619 27.8364L93.5712 27.4186H93.2216L93.3215 27.9819C93.4715 28.0545 93.8215 28.2086 94.1614 28.2086C94.7913 28.0816 95.1911 27.9179 95.1911 27.4643C95.1911 27.1831 95.0416 26.9931 94.6717 26.8207L94.2513 26.6296C94.0114 26.5207 93.8718 26.4216 93.8718 26.2583C93.8718 26.0768 94.0813 25.9673 94.2913 25.9673C94.4913 25.9673 94.6617 26.0492 94.7117 26.0764L94.8515 26.43H95.1412V25.931C94.9798 25.8222 94.6604 25.7043 94.3612 25.7043ZM32.3825 25.7229C31.6326 25.8681 31.1421 26.2669 31.1421 27.0017C31.1421 27.7909 31.7425 28.217 32.4124 28.217C32.7624 28.1354 33.1122 27.9904 33.3722 27.8271L33.2823 27.6368C33.0723 27.7548 32.8122 27.8457 32.5922 27.8457C32.0223 27.8457 31.6824 27.4463 31.6824 26.8748V26.8655H33.3522V26.6566C33.3522 26.1395 33.1123 25.7229 32.3825 25.7229ZM47.2492 25.7229C46.4993 25.8681 46.0098 26.2669 46.0098 27.0017C46.0098 27.7909 46.6093 28.217 47.2792 28.217C47.6291 28.1354 47.9799 27.9904 48.2399 27.8271L48.1491 27.6368C47.9391 27.7548 47.6799 27.8457 47.4599 27.8457C46.89 27.8457 46.5501 27.4463 46.5501 26.8748V26.8655H48.2199V26.6566C48.2199 26.1395 47.9791 25.7229 47.2492 25.7229ZM61.4166 25.7229C60.5667 25.859 60.0673 26.2758 60.0673 27.0287C60.0673 27.7001 60.5668 28.217 61.2967 28.217C62.1465 28.09 62.6469 27.6644 62.6469 26.9205C62.6469 26.2401 62.1564 25.7229 61.4166 25.7229ZM70.4747 25.7229C69.7249 25.8681 69.2353 26.2669 69.2353 27.0017C69.2353 27.7909 69.8248 28.217 70.4947 28.217C70.8446 28.1354 71.1954 27.9904 71.4554 27.8271L71.3646 27.6368C71.1546 27.7548 70.8954 27.8457 70.6754 27.8457C70.1055 27.8457 69.7656 27.4463 69.7656 26.8748V26.8655H71.4454V26.6566C71.4454 26.1395 71.2046 25.7229 70.4747 25.7229ZM75.8136 25.7229L74.8139 26.1306V26.512H75.2843L75.3742 26.1128C75.4941 26.0674 75.6737 26.0223 75.8236 26.0223C76.1136 26.0223 76.1442 26.2033 76.1442 26.5027V26.7479L74.9038 27.1201C74.7838 27.2743 74.714 27.4013 74.714 27.5827C74.714 27.9819 75.0541 28.217 75.524 28.217L76.1841 27.7823L76.3539 28.1629L77.0639 28.036L77.0439 27.8635H76.7743C76.7243 27.7819 76.6835 27.7091 76.6835 27.4914V26.512C76.6835 25.886 76.5035 25.7229 75.8136 25.7229ZM82.0426 25.7229L81.0629 26.1306V26.512H81.5332L81.6231 26.1128C81.7431 26.0674 81.9226 26.0223 82.0726 26.0223C82.3625 26.0223 82.3931 26.2033 82.3931 26.5027V26.7479L81.1528 27.1201C81.0328 27.2743 80.963 27.4013 80.963 27.5827C80.963 27.9819 81.3031 28.217 81.773 28.217L82.4231 27.7823L82.5929 28.1629L83.3029 28.036L83.2829 27.8635H83.0033C82.9533 27.7819 82.9124 27.7091 82.9124 27.4914V26.512C82.9124 25.886 82.7325 25.7229 82.0426 25.7229ZM40.3 25.7314L39.4901 26.2126L39.4601 25.7948L39.2195 25.8134L38.5603 25.9673L38.5903 26.1398L38.9698 26.1128V27.9362L38.5903 27.9819L38.6202 28.1536L39.2504 28.1358L39.7797 28.1629L39.8097 27.9903L39.5101 27.9455V26.4663L39.6699 26.3665C39.8598 26.2486 40.0501 26.1398 40.2401 26.1398C40.4701 26.1398 40.5997 26.2489 40.5997 26.512V27.9362L40.32 27.9819L40.35 28.1536L40.8793 28.1358L41.5095 28.1536L41.5395 27.9819L41.1199 27.9362V26.5484C41.1199 25.9496 40.9999 25.7314 40.3 25.7314ZM100.85 25.7314L100.04 26.2126L100.01 25.7948L99.7695 25.8134L99.1103 25.9673L99.1403 26.1398L99.5198 26.1128V27.9362L99.1403 27.9819L99.1703 28.1536L99.7995 28.1358L100.32 28.1629L100.35 27.9903L100.05 27.9455V26.4663L100.22 26.3665C100.41 26.2486 100.599 26.1398 100.789 26.1398C101.019 26.1398 101.15 26.2489 101.15 26.512V27.9362L100.87 27.9819L100.9 28.1536L101.429 28.1358L102.06 28.1536L102.089 27.9819L101.669 27.9362V26.5484C101.669 25.9496 101.55 25.7314 100.85 25.7314ZM50.0895 25.75L49.4594 26.4486L49.4394 25.7863L49.2197 25.8041L48.5596 25.9589L48.5895 26.1306L48.9691 26.1035V27.9269L48.5895 27.9726L48.6195 28.1451L49.2397 28.1265L50.0396 28.1451L50.0696 27.954L49.4894 27.9092V26.7209L49.5992 26.6025C49.7492 26.4392 49.9896 26.2762 50.1195 26.2489H50.529V25.75L50.0895 25.75ZM90.9901 25.7863L90.7205 25.8041L90.0603 25.931L90.0903 26.1221L90.4808 26.0942V27.4009C90.4808 27.9815 90.6008 28.217 91.3307 28.217L92.1306 27.7637L92.2804 28.1722L92.9905 28.0453L92.9705 27.8728H92.6899C92.6499 27.7912 92.62 27.7184 92.62 27.5007V25.7863L92.3404 25.8041L91.7302 25.931L91.7602 26.1221L92.0907 26.0942V27.5007L91.9808 27.5641C91.7708 27.6911 91.5506 27.8178 91.3806 27.8178C91.1107 27.8178 90.9902 27.7096 90.9902 27.4465L90.9901 25.7863ZM42.6499 25.7948L42.3702 25.8134L41.7101 25.9673L41.7401 26.1399L42.1205 26.1128V27.9362L41.7401 27.9819L41.77 28.1536L42.4002 28.1358L43.0303 28.1536L43.0603 27.9819L42.6498 27.9362L42.6499 25.7948ZM43.1102 25.7948L43.0803 25.9673L43.4198 26.0223L44.3796 28.2263L44.78 28.0724L45.6799 26.0223L46.0295 25.9673L45.9995 25.7948L45.54 25.8134L45.0597 25.7948L45.0297 25.9673L45.2794 26.0223L44.6103 27.8271L44.5894 27.4829L43.9901 26.0223L44.3497 25.9673L44.3197 25.7948L43.7404 25.8134L43.1102 25.7948ZM54.018 25.7948L53.7483 25.8134L53.0882 25.9673L53.1182 26.1399L53.4978 26.1128V27.9362L53.1182 27.9819L53.1481 28.1536L53.7783 28.1358L54.3985 28.1536L54.4284 27.9819L54.018 27.9362L54.018 25.7948ZM71.7248 25.7948L71.6949 25.9766L72.0345 26.0308L72.8344 27.0203L72.0244 27.9269L71.6349 27.9726L71.6649 28.1451L72.2342 28.1265L72.6646 28.1451L72.6945 27.9726L72.4249 27.9362L73.0042 27.1742L73.0441 27.2918L73.5344 27.9362L73.3047 27.9819L73.3347 28.1536L73.8541 28.1358L74.4842 28.1536L74.5141 27.9819L74.1745 27.9362L73.3147 26.8292L74.0438 26.0308L74.4442 25.9766L74.4142 25.7948L73.844 25.8134L73.4145 25.7948L73.3846 25.9766L73.6543 26.0308L73.134 26.7116L73.094 26.5847L72.6845 26.0308L72.9043 25.9767L72.8743 25.7948L72.3549 25.8134L71.7248 25.7948ZM98.4698 25.7948L98.2001 25.8134L97.54 25.9673L97.5699 26.1399L97.9495 26.1128V27.9362L97.5699 27.9819L97.5999 28.1536L98.23 28.1358L98.8492 28.1536L98.8792 27.9819L98.4697 27.9362L98.4698 25.7948ZM32.2725 25.9673C32.7024 25.9673 32.7819 26.2401 32.7819 26.6211L31.6823 26.6659C31.7223 26.2486 31.9326 25.9673 32.2725 25.9673ZM47.1492 25.9673C47.5791 25.9673 47.6595 26.2401 47.6595 26.6211L46.56 26.6659C46.5999 26.2486 46.8093 25.9673 47.1492 25.9673ZM61.2966 25.9673C61.7665 25.9673 62.1066 26.3937 62.1066 27.0287C62.1066 27.564 61.8764 27.9726 61.4365 27.9726C60.9466 27.9726 60.6166 27.492 60.6265 26.9205C60.6265 26.3762 60.8467 25.9673 61.2966 25.9673ZM70.3548 25.9673C70.7847 25.9673 70.8651 26.2401 70.8651 26.6211L69.7655 26.6659C69.8055 26.2486 70.0249 25.9673 70.3548 25.9673ZM76.1543 26.9476V27.6005L75.9245 27.7459C75.8546 27.7913 75.714 27.8728 75.5641 27.8728C75.4041 27.8728 75.2444 27.7817 75.2444 27.5277C75.2444 27.4189 75.2743 27.3195 75.3543 27.2469L76.1543 26.9476ZM82.3832 26.9476V27.6005L82.1535 27.7459C82.0835 27.7913 81.943 27.8728 81.793 27.8728C81.6331 27.8728 81.4734 27.7817 81.4734 27.5277C81.4734 27.4189 81.5033 27.3195 81.5833 27.2469L82.3832 26.9476Z" fill="#BF5700"/>
</g>
<defs>
<clipPath id="clip0_309_7001">
<rect width="102.089" height="32" fill="white"/>
</clipPath>
</defs>
</svg>
