<svg width="88" height="32" viewBox="0 0 88 32" fill="none" xmlns="http://www.w3.org/2000/svg">
<g clip-path="url(#clip0_27590_76392)">
<path d="M51.0655 21.7136C50.6958 21.7131 50.3414 21.5658 50.0801 21.3041C49.8189 21.0425 49.6722 20.6879 49.6722 20.3181V12.3401C49.6722 11.97 49.8192 11.615 50.0809 11.3533C50.3426 11.0916 50.6976 10.9446 51.0677 10.9446C51.4378 10.9446 51.7927 11.0916 52.0545 11.3533C52.3162 11.615 52.4632 11.97 52.4632 12.3401V20.3181C52.4632 20.5016 52.427 20.6832 52.3568 20.8527C52.2865 21.0221 52.1835 21.1761 52.0537 21.3057C51.9239 21.4353 51.7698 21.538 51.6002 21.6081C51.4306 21.6781 51.2489 21.7139 51.0655 21.7136Z" fill="#3668FF"/>
<path d="M56.7202 21.7136C56.3501 21.7136 55.9951 21.5666 55.7334 21.3049C55.4717 21.0432 55.3247 20.6882 55.3247 20.3181V11.7169L56.1694 11.3527C56.4481 11.2342 58.9583 10.2051 61.1502 11.0345C61.4965 11.1654 61.7766 11.4286 61.9288 11.766C62.0811 12.1034 62.093 12.4875 61.9621 12.8337C61.8312 13.18 61.568 13.46 61.2306 13.6123C60.8932 13.7645 60.5091 13.7765 60.1629 13.6456C59.5507 13.4262 58.7454 13.5052 58.1157 13.6456V20.3181C58.1157 20.6882 57.9687 21.0432 57.7069 21.3049C57.4452 21.5666 57.0903 21.7136 56.7202 21.7136Z" fill="#3668FF"/>
<path d="M67.9631 10.9492H66.4821V10.0715C66.4821 9.70142 66.335 9.34647 66.0733 9.08476C65.8116 8.82305 65.4567 8.67603 65.0866 8.67603C64.7165 8.67603 64.3615 8.82305 64.0998 9.08476C63.8381 9.34647 63.6911 9.70142 63.6911 10.0715V20.3184C63.6911 20.6885 63.8381 21.0434 64.0998 21.3051C64.3615 21.5669 64.7165 21.7139 65.0866 21.7139C65.4567 21.7139 65.8116 21.5669 66.0733 21.3051C66.335 21.0434 66.4821 20.6885 66.4821 20.3184V13.7358H67.9631C68.3332 13.7358 68.6882 13.5888 68.9499 13.3271C69.2116 13.0654 69.3586 12.7104 69.3586 12.3403C69.3586 11.9702 69.2116 11.6153 68.9499 11.3535C68.6882 11.0918 68.3332 10.9448 67.9631 10.9448V10.9492Z" fill="#3668FF"/>
<path d="M51.0875 9.48119C51.8582 9.48119 52.483 8.8564 52.483 8.08569C52.483 7.31497 51.8582 6.69019 51.0875 6.69019C50.3168 6.69019 49.692 7.31497 49.692 8.08569C49.692 8.8564 50.3168 9.48119 51.0875 9.48119Z" fill="#3668FF"/>
<path d="M72.4742 21.7137C72.104 21.7137 71.7491 21.5667 71.4874 21.305C71.2257 21.0433 71.0786 20.6883 71.0786 20.3182V11.717L71.9563 11.3703C72.2328 11.2606 74.7254 10.3325 76.8932 11.1509C77.2395 11.2819 77.5196 11.545 77.6718 11.8824C77.8241 12.2198 77.836 12.6039 77.7051 12.9502C77.5742 13.2964 77.311 13.5765 76.9736 13.7287C76.6362 13.881 76.2521 13.8929 75.9059 13.762C75.2915 13.5294 74.4928 13.5931 73.8609 13.7203V20.3182C73.8609 20.6868 73.7151 21.0405 73.4552 21.3019C73.1954 21.5634 72.8427 21.7114 72.4742 21.7137Z" fill="#3668FF"/>
<path d="M83.6579 21.7136C82.5478 21.7125 81.4834 21.2719 80.6973 20.4883C79.9111 19.7046 79.4672 18.6415 79.4626 17.5315V12.3401C79.4626 11.97 79.6096 11.615 79.8713 11.3533C80.133 11.0916 80.488 10.9446 80.8581 10.9446C81.2282 10.9446 81.5832 11.0916 81.8449 11.3533C82.1066 11.615 82.2536 11.97 82.2536 12.3401V17.5315C82.2679 17.8941 82.422 18.237 82.6836 18.4884C82.9452 18.7399 83.294 18.8803 83.6568 18.8803C84.0196 18.8803 84.3684 18.7399 84.6299 18.4884C84.8915 18.237 85.0456 17.8941 85.06 17.5315V12.3401C85.06 11.97 85.207 11.615 85.4687 11.3533C85.7304 11.0916 86.0854 10.9446 86.4555 10.9446C86.8256 10.9446 87.1805 11.0916 87.4422 11.3533C87.7039 11.615 87.851 11.97 87.851 12.3401V17.5315C87.8469 18.6413 87.4035 19.7044 86.6177 20.4881C85.8319 21.2719 84.7677 21.7125 83.6579 21.7136Z" fill="#3668FF"/>
<path d="M38.212 21.9528V11.3439H41.003V18.2161C42.5982 17.4065 44.7332 15.6928 44.7332 12.3401C44.7332 11.97 44.8802 11.615 45.1419 11.3533C45.4036 11.0916 45.7585 10.9446 46.1287 10.9446C46.4988 10.9446 46.8537 11.0916 47.1154 11.3533C47.3771 11.615 47.5242 11.97 47.5242 12.3401C47.5242 18.339 42.5236 20.9215 39.8928 21.6039C39.9038 21.6039 38.8176 21.876 38.212 21.9528Z" fill="#3668FF"/>
<path d="M12.4413 21.9528V11.3439H15.2345V18.2161C16.8297 17.4065 18.9646 15.6928 18.9646 12.3401C18.9646 11.97 19.1116 11.615 19.3733 11.3533C19.635 11.0916 19.99 10.9446 20.3601 10.9446C20.7302 10.9446 21.0852 11.0916 21.3469 11.3533C21.6086 11.615 21.7556 11.97 21.7556 12.3401C21.7666 18.339 16.7594 20.9215 14.1264 21.6039C14.1264 21.6039 13.0491 21.876 12.4413 21.9528Z" fill="#3668FF"/>
<path d="M21.1214 4.18431C18.2384 2.96142 15.0078 2.83484 12.038 3.82841C9.06816 4.82198 6.56411 6.86713 4.99744 9.57867C3.43076 12.2902 2.90959 15.481 3.53206 18.5501C4.15453 21.6193 5.8777 24.3549 8.37703 26.2418C10.8763 28.1286 13.9793 29.0366 17.1016 28.7946C20.2238 28.5525 23.1498 27.1773 25.3285 24.9278C27.5072 22.6783 28.7883 19.7098 28.9303 16.5814C29.0724 13.4531 28.0658 10.3807 26.1 7.94296C26.6564 7.84219 27.1675 7.57027 27.562 7.16514C27.9565 6.76001 28.2148 6.24186 28.3007 5.68294C28.5975 6.01867 28.8759 6.37026 29.1345 6.73615C31.2109 9.66014 32.2448 13.1969 32.0702 16.7789C31.8956 20.3609 30.5227 23.7804 28.1718 26.4886C25.8209 29.1968 22.6283 31.0367 19.1064 31.7129C15.5845 32.3892 11.9376 31.8627 8.75076 30.2179C5.56397 28.5731 3.02217 25.9053 1.53327 22.6427C0.0443698 19.3802 -0.305286 15.712 0.540416 12.2269C1.38612 8.74181 3.37814 5.64188 6.19679 3.4246C9.01543 1.20732 12.4973 0.00127031 16.0835 0C16.6057 0 17.1806 0.0197477 17.7313 0.070214C18.3867 0.145162 19.0367 0.260947 19.6776 0.416895C20.5681 0.614386 21.4384 0.893496 22.2777 1.25069C22.9513 1.52057 23.6381 2.14591 23.4801 3.22545C23.4801 3.23642 23.2256 4.91717 21.1214 4.18431Z" fill="#3668FF"/>
</g>
<defs>
<clipPath id="clip0_27590_76392">
<rect width="87.7619" height="32" fill="white" transform="translate(0.0891571)"/>
</clipPath>
</defs>
</svg>
